<?xml version="1.0" encoding="UTF-8" standalone="no"?><!DOCTYPE svg PUBLIC "-//W3C//DTD SVG 1.1//EN" "http://www.w3.org/Graphics/SVG/1.1/DTD/svg11.dtd"><svg width="100%" height="100%" viewBox="0 0 1175 1193" version="1.1" xmlns="http://www.w3.org/2000/svg" xmlns:xlink="http://www.w3.org/1999/xlink" xml:space="preserve" xmlns:serif="http://www.serif.com/" style="fill-rule:evenodd;clip-rule:evenodd;stroke-linejoin:round;stroke-miterlimit:2;"><g><g transform="matrix(2.08333,0,0,2.08333,-574.848,-401.587)"><g transform="matrix(-0.285373,0.958416,-0.958416,-0.285373,1492.51,-86.3904)"><text x="778.463px" y="513.237px" style="font-family:'SpaceGrotesk-SemiBold', 'Space Grotesk';font-weight:600;font-size:92px;">H</text></g><g transform="matrix(-0.536701,0.843773,-0.843773,-0.536701,1651.87,235.708)"><text x="761.222px" y="571.358px" style="font-family:'SpaceGrotesk-SemiBold', 'Space Grotesk';font-weight:600;font-size:92px;">O</text></g><g transform="matrix(-0.775471,0.631383,-0.631383,-0.775471,1688.31,649.987)"><text x="728.585px" y="625.188px" style="font-family:'SpaceGrotesk-SemiBold', 'Space Grotesk';font-weight:600;font-size:92px;">M</text></g><g transform="matrix(-0.929343,0.369217,-0.369217,-0.929343,1531.15,1056.42)"><text x="664.493px" y="674.717px" style="font-family:'SpaceGrotesk-SemiBold', 'Space Grotesk';font-weight:600;font-size:92px;">E</text></g><g transform="matrix(-0.999698,0.0245714,-0.0245714,-0.999698,1204.71,1384.09)"><text x="593.852px" y="699.446px" style="font-family:'SpaceGrotesk-SemiBold', 'Space Grotesk';font-weight:600;font-size:92px;">B</text></g><g transform="matrix(-0.968399,-0.249406,0.249406,-0.968399,872.981,1512.57)"><text x="532.316px" y="700.981px" style="font-family:'SpaceGrotesk-SemiBold', 'Space Grotesk';font-weight:600;font-size:92px;">U</text></g><g transform="matrix(-0.870167,-0.492758,0.492758,-0.870167,546.077,1513.89)"><text x="472.481px" y="685.005px" style="font-family:'SpaceGrotesk-SemiBold', 'Space Grotesk';font-weight:600;font-size:92px;">T</text></g><g transform="matrix(-0.725801,-0.687905,0.687905,-0.725801,281.07,1428.43)"><text x="425.222px" y="658.199px" style="font-family:'SpaceGrotesk-SemiBold', 'Space Grotesk';font-weight:600;font-size:92px;">T</text></g><g transform="matrix(-0.52394,-0.851755,0.851755,-0.52394,58.2672,1274.76)"><text x="385.377px" y="621.099px" style="font-family:'SpaceGrotesk-SemiBold', 'Space Grotesk';font-weight:600;font-size:92px;">O</text></g><g transform="matrix(-0.267455,-0.96357,0.96357,-0.267455,-100.093,1059.58)"><text x="352.72px" y="567.835px" style="font-family:'SpaceGrotesk-SemiBold', 'Space Grotesk';font-weight:600;font-size:92px;">N</text></g></g><g transform="matrix(-2.08333,0,0,-2.08333,1749.08,1594.22)"><g transform="matrix(-0.285373,0.958416,-0.958416,-0.285373,1492.51,-86.3904)"><text x="778.463px" y="513.237px" style="font-family:'SpaceGrotesk-SemiBold', 'Space Grotesk';font-weight:600;font-size:92px;">H</text></g><g transform="matrix(-0.536701,0.843773,-0.843773,-0.536701,1651.87,235.708)"><text x="761.222px" y="571.358px" style="font-family:'SpaceGrotesk-SemiBold', 'Space Grotesk';font-weight:600;font-size:92px;">O</text></g><g transform="matrix(-0.775471,0.631383,-0.631383,-0.775471,1688.31,649.987)"><text x="728.585px" y="625.188px" style="font-family:'SpaceGrotesk-SemiBold', 'Space Grotesk';font-weight:600;font-size:92px;">M</text></g><g transform="matrix(-0.929343,0.369217,-0.369217,-0.929343,1531.15,1056.42)"><text x="664.493px" y="674.717px" style="font-family:'SpaceGrotesk-SemiBold', 'Space Grotesk';font-weight:600;font-size:92px;">E</text></g><g transform="matrix(-0.999698,0.0245714,-0.0245714,-0.999698,1204.71,1384.09)"><text x="593.852px" y="699.446px" style="font-family:'SpaceGrotesk-SemiBold', 'Space Grotesk';font-weight:600;font-size:92px;">B</text></g><g transform="matrix(-0.968399,-0.249406,0.249406,-0.968399,872.981,1512.57)"><text x="532.316px" y="700.981px" style="font-family:'SpaceGrotesk-SemiBold', 'Space Grotesk';font-weight:600;font-size:92px;">U</text></g><g transform="matrix(-0.870167,-0.492758,0.492758,-0.870167,546.077,1513.89)"><text x="472.481px" y="685.005px" style="font-family:'SpaceGrotesk-SemiBold', 'Space Grotesk';font-weight:600;font-size:92px;">T</text></g><g transform="matrix(-0.725801,-0.687905,0.687905,-0.725801,281.07,1428.43)"><text x="425.222px" y="658.199px" style="font-family:'SpaceGrotesk-SemiBold', 'Space Grotesk';font-weight:600;font-size:92px;">T</text></g><g transform="matrix(-0.52394,-0.851755,0.851755,-0.52394,58.2672,1274.76)"><text x="385.377px" y="621.099px" style="font-family:'SpaceGrotesk-SemiBold', 'Space Grotesk';font-weight:600;font-size:92px;">O</text></g><g transform="matrix(-0.267455,-0.96357,0.96357,-0.267455,-100.093,1059.58)"><text x="352.72px" y="567.835px" style="font-family:'SpaceGrotesk-SemiBold', 'Space Grotesk';font-weight:600;font-size:92px;">N</text></g></g></g></svg>